<svg width="1024" height="1024" viewBox="0 0 1024 1024" fill="none" xmlns="http://www.w3.org/2000/svg">
  <defs>
    <linearGradient id="ground" x1="92" y1="70" x2="930" y2="962" gradientUnits="userSpaceOnUse">
      <stop stop-color="#153B68"/>
      <stop offset="1" stop-color="#071B35"/>
    </linearGradient>
    <linearGradient id="route" x1="232" y1="790" x2="771" y2="253" gradientUnits="userSpaceOnUse">
      <stop stop-color="#E8C85B"/>
      <stop offset="1" stop-color="#FFE98D"/>
    </linearGradient>
    <linearGradient id="pin" x1="657" y1="205" x2="815" y2="470" gradientUnits="userSpaceOnUse">
      <stop stop-color="#FFFFFF"/>
      <stop offset="1" stop-color="#EAF3FF"/>
    </linearGradient>
    <filter id="shadow" x="-20%" y="-20%" width="140%" height="150%">
      <feDropShadow dx="0" dy="18" stdDeviation="16" flood-color="#020A16" flood-opacity="0.45"/>
    </filter>
  </defs>

  <rect width="1024" height="1024" fill="url(#ground)"/>
  <g opacity="0.16" stroke="#91B8DD" stroke-width="2">
    <path d="M0 166H1024M0 344H1024M0 522H1024M0 700H1024M0 878H1024"/>
    <path d="M146 0V1024M324 0V1024M502 0V1024M680 0V1024M858 0V1024"/>
  </g>
  <path d="M130 875C243 875 252 793 252 698V585C252 437 352 355 485 355H671" stroke="#49749C" stroke-width="62" stroke-linecap="round"/>
  <path d="M130 875C243 875 252 793 252 698V585C252 437 352 355 485 355H671" stroke="url(#route)" stroke-width="40" stroke-linecap="round"/>
  <circle cx="130" cy="875" r="66" fill="#0B2444" stroke="#FFF6C9" stroke-width="16"/>
  <circle cx="130" cy="875" r="20" fill="#F5D86C"/>
  <g filter="url(#shadow)">
    <path d="M755 160C642 160 561 245 561 354C561 503 755 686 755 686C755 686 949 503 949 354C949 245 868 160 755 160Z" fill="url(#pin)"/>
    <circle cx="755" cy="354" r="77" fill="#10365F"/>
    <path d="M755 304L788 369L755 403L722 369L755 304Z" fill="#F5D86C"/>
  </g>
  <path d="M375 815H633" stroke="#D7E8FA" stroke-width="18" stroke-linecap="round" opacity="0.58"/>
  <path d="M425 866H583" stroke="#D7E8FA" stroke-width="18" stroke-linecap="round" opacity="0.35"/>
</svg>
